<?xml version="1.0" standalone="no"?>
<!DOCTYPE svg PUBLIC "-//W3C//DTD SVG 20010904//EN"
 "http://www.w3.org/TR/2001/REC-SVG-20010904/DTD/svg10.dtd">
<svg version="1.0" xmlns="http://www.w3.org/2000/svg"
 width="270.000000pt" height="270.000000pt" viewBox="0 0 270.000000 270.000000"
 preserveAspectRatio="xMidYMid meet">
<metadata>
Created by potrace 1.14, written by Peter Selinger 2001-2017
</metadata>
<g transform="translate(0.000000,270.000000) scale(0.100000,-0.100000)"
fill="#000000" stroke="none">
<path d="M1245 2630 c-49 -33 -97 -64 -105 -70 -80 -56 -225 -150 -231 -150
-5 0 -9 -5 -9 -11 0 -6 -5 -9 -11 -7 -7 2 -11 38 -11 96 l-1 92 -36 1 c-90 2
-214 -1 -219 -6 -3 -3 -5 -86 -4 -185 l1 -181 -102 -67 c-56 -37 -106 -71
-112 -75 -5 -4 -44 -30 -85 -57 -41 -28 -80 -53 -85 -57 -53 -39 -105 -73
-114 -73 -6 0 -11 -3 -11 -7 -1 -5 -25 -23 -54 -42 l-54 -35 2 -875 1 -876
1083 0 1082 0 0 50 c1 72 1 1332 0 1382 0 44 -1 45 -138 123 -14 8 -35 23 -46
33 -11 9 -24 17 -29 17 -5 0 -27 13 -50 28 -23 15 -51 33 -62 40 -11 6 -56 34
-100 62 -94 60 -74 47 -255 160 -79 50 -149 89 -155 86 -11 -4 -389 -246 -411
-263 -23 -18 -50 -34 -66 -39 -10 -4 -18 -9 -18 -13 0 -3 -20 -17 -45 -31 -25
-14 -45 -28 -45 -32 0 -5 -4 -8 -9 -8 -12 0 -103 -60 -112 -73 -3 -5 -10 -9
-15 -9 -5 -1 -24 -11 -41 -22 l-33 -21 0 -475 0 -475 140 0 c86 0 140 4 141
10 1 5 2 186 3 402 0 215 3 393 6 395 3 2 55 35 115 73 61 38 112 73 113 77 2
4 8 8 13 8 11 0 123 72 127 83 2 4 8 7 12 7 5 0 37 18 70 39 69 45 57 47 185
-34 39 -25 85 -52 103 -61 17 -9 32 -20 32 -25 0 -5 6 -9 13 -9 6 0 40 -18 75
-40 34 -22 67 -40 72 -40 4 0 10 -3 12 -8 2 -4 28 -22 59 -41 l55 -33 1 -524
c0 -473 -2 -524 -16 -525 -9 -1 -364 -2 -789 -3 -507 0 -776 2 -780 9 -4 6 -7
303 -8 662 l0 652 45 33 c25 18 58 41 74 51 16 10 34 22 40 27 30 25 168 120
175 120 4 0 19 11 34 25 15 14 30 25 33 25 3 0 30 18 60 40 30 22 57 40 60 40
4 0 12 6 20 13 7 6 42 31 77 55 35 24 142 98 238 164 96 67 184 122 195 123
11 1 31 -9 45 -22 13 -13 30 -23 37 -23 6 0 13 -3 15 -7 5 -12 95 -73 107 -73
6 0 11 -4 11 -10 0 -5 5 -10 11 -10 6 0 17 -6 24 -12 26 -24 41 -35 50 -39 21
-9 230 -153 233 -161 2 -4 8 -8 13 -8 5 0 89 -54 186 -121 98 -66 213 -144
255 -172 42 -28 78 -58 80 -66 2 -9 3 -368 3 -798 -1 -431 1 -784 4 -784 3 -1
68 -2 143 -3 l137 -1 0 875 0 875 -122 80 c-67 44 -128 85 -135 92 -6 6 -21
15 -32 18 -11 3 -20 11 -20 16 0 5 -5 9 -10 9 -6 0 -46 25 -90 55 -44 30 -84
55 -89 55 -5 0 -11 3 -13 8 -1 4 -43 34 -93 66 -49 33 -91 63 -93 67 -2 5 -9
9 -16 9 -12 0 -96 57 -107 73 -3 5 -9 8 -13 7 -4 0 -120 75 -259 167 -139 92
-256 169 -262 171 -5 1 -50 -25 -100 -58z"/>
<path d="M1095 1284 c-10 -4 -12 -231 -1 -241 6 -7 224 -9 230 -2 6 6 8 60 7
160 l-1 86 -112 1 c-62 0 -117 -2 -123 -4z"/>
<path d="M1407 1281 c-3 -5 -1 -213 2 -236 1 -8 173 -12 234 -6 4 1 7 57 7
125 l0 123 -120 1 c-66 0 -122 -3 -123 -7z"/>
<path d="M1089 952 c0 -9 -1 -64 -1 -122 -1 -124 -10 -117 141 -112 l100 3 3
77 c2 42 2 98 0 124 l-3 46 -120 1 c-105 0 -119 -2 -120 -17z"/>
<path d="M1409 962 c-1 -4 -2 -59 -3 -122 l-1 -115 50 -5 c28 -3 83 -4 123 -2
l72 4 0 124 0 125 -120 -2 c-66 0 -121 -4 -121 -7z"/>
</g>
</svg>
